<svg width="440" height="120" preserveAspectRatio="xMidYMid" version="1.0" viewBox="0 0 330 90"
   xmlns="http://www.w3.org/2000/svg" zoomAndPan="magnify">
   <defs>
      <clipPath id="b">
         <path d="m343.02 81.59h25.762v25.762h-25.762z" />
      </clipPath>
      <linearGradient id="a" x1="-2.9079e-6" x2="256" y1="128" y2="128"
         gradientTransform="matrix(.10063 0 0 .10063 343.02 81.592)" gradientUnits="userSpaceOnUse">
         <stop stop-color="#ff3030" offset="0" />
         <stop stop-color="#ff904c" offset="1" />
      </linearGradient>
   </defs>
   <g transform="translate(-43.5,-25.5)" clip-path="url(#b)">
      <path d="m343.02 81.59v25.762h25.762v-25.762z" fill="url(#a)" />
   </g>
   <path
      d="m7.7725 66.592q28.77 1.575 38.955 1.575 2.415 0 3.78-1.365 1.47-1.47 1.47-3.885v-9.45h-24.15q-11.025 0-16.065-4.935-4.935-5.04-4.935-16.065v-3.15q0-11.025 4.935-15.96 5.04-5.04 16.065-5.04h36.855v14.7h-32.655q-6.3 0-6.3 6.3v2.1q0 6.3 6.3 6.3h18.9q10.29 0 15.12 4.83t4.83 15.12v5.25q0 10.29-4.83 15.12t-15.12 4.83q-5.355 0-11.34-0.21l-9.66-0.42q-10.71-0.525-22.155-1.47zm83.58 15.225h-20.475l27.825-73.5h21l27.825 73.5h-20.475l-4.725-13.125h-26.25zm9.45-26.775h16.8l-8.4-24.675zm70.875 26.775h-18.9v-73.5h58.275v14.7h-39.375v17.325h30.975v14.7h-30.975zm105 0h-58.275v-73.5h58.275v14.7h-39.375v14.175h30.975v14.7h-30.975v15.225h39.375z"
      fill="currentColor" stroke-width=".75" aria-label="SAFE" />
</svg>